<?xml version="1.0" encoding="utf-8"?>
<!-- Generator: Adobe Illustrator 25.2.1, SVG Export Plug-In . SVG Version: 6.00 Build 0)  -->
<svg version="1.1" id="Layer_1" xmlns="http://www.w3.org/2000/svg" xmlns:xlink="http://www.w3.org/1999/xlink" x="0px" y="0px"
	 viewBox="0 0 250 150" style="enable-background:new 0 0 250 150;" xml:space="preserve">
<style type="text/css">
	.st0{fill:#F6F6F8;}
	.st1{fill:#E94E1B;}
	.st2{fill:#009FE3;}
</style>
<rect y="0" class="st0" width="250" height="150"/>
<g>
	<path class="st1" d="M113.1,57.93h5.82c3.88,0,6.51,0.15,7.88,0.45c1.37,0.3,2.49,1.06,3.36,2.29s1.3,3.19,1.3,5.89
		c0,2.46-0.31,4.11-0.92,4.96c-0.61,0.85-1.82,1.35-3.61,1.52c1.63,0.4,2.72,0.94,3.28,1.62c0.56,0.68,0.91,1.3,1.04,1.87
		s0.21,2.13,0.21,4.68v8.34h-7.64V79.05c0-1.69-0.13-2.74-0.4-3.14s-0.97-0.61-2.1-0.61v14.26h-8.22V57.93z M121.33,63.34v7.03
		c0.92,0,1.57-0.13,1.94-0.38s0.56-1.08,0.56-2.47v-1.74c0-1-0.18-1.66-0.54-1.97S122.28,63.34,121.33,63.34z"/>
	<path class="st2" d="M151.1,57.93v6.33h-4.88v25.29H138V64.26h-4.86v-6.33H151.1z"/>
	<path class="st2" d="M171.89,57.93v31.62h-8.22V76.27h-2.46v13.28h-8.22V57.93h8.22v11.31h2.46V57.93H171.89z"/>
	<path class="st2" d="M175.19,57.93h13.71v6.33h-5.49v6h5.14v6.02h-5.14v6.95h6.04v6.33h-14.26V57.93z"/>
	<path class="st2" d="M191.81,57.93h5.82c3.88,0,6.51,0.15,7.88,0.45c1.37,0.3,2.49,1.06,3.36,2.29s1.3,3.19,1.3,5.89
		c0,2.46-0.31,4.11-0.92,4.96c-0.61,0.85-1.82,1.35-3.61,1.52c1.63,0.4,2.72,0.94,3.28,1.62c0.56,0.68,0.91,1.3,1.04,1.87
		s0.21,2.13,0.21,4.68v8.34h-7.64V79.05c0-1.69-0.13-2.74-0.4-3.14s-0.97-0.61-2.1-0.61v14.26h-8.22V57.93z M200.03,63.34v7.03
		c0.92,0,1.57-0.13,1.94-0.38s0.56-1.08,0.56-2.47v-1.74c0-1-0.18-1.66-0.54-1.97S200.98,63.34,200.03,63.34z"/>
	<path class="st2" d="M54.29,57.93h-4.33c-1.21,8.95-1.97,16.18-2.27,21.7l-0.84-10.67l-0.87-11.03H38l3.68,31.62h10.21
		c1.2-8.4,1.97-13.93,2.29-16.58c0.04,0.33,0.08,0.65,0.12,0.98V57.93z"/>
	<path class="st1" d="M54.29,57.93h4.33c1.21,8.95,1.97,16.18,2.27,21.7l0.84-10.67l0.87-11.03h7.99l-3.68,31.62H56.71
		c-1.2-8.4-1.97-13.93-2.29-16.58c-0.04,0.33-0.08,0.65-0.12,0.98V57.93z"/>
	<polygon class="st2" points="86.37,73.75 86.37,71.19 81.23,71.19 81.23,64.74 86.72,64.74 86.72,57.93 73.01,57.93 73.01,73.75 	
		"/>
	<polygon class="st1" points="86.37,73.75 86.37,76.3 81.23,76.3 81.23,82.75 86.72,82.75 86.72,89.56 73.01,89.56 73.01,73.75 	"/>
	<path class="st2" d="M100.47,78.27h-1.42c0.2-2.61,0.67-6.65,1.42-12.09v-8.25h-6.11l-4.19,31.62h8.5l0.49-5.68h1.31V78.27z"/>
	<path class="st1" d="M100.47,78.27h1.42c-0.2-2.61-0.67-6.65-1.42-12.09v-8.25h6.11l4.19,31.62h-8.5l-0.49-5.68h-1.31V78.27z"/>
</g>
</svg>
